<?xml version="1.0" encoding="utf-8"?>
<!-- Svg Vector Icons : http://www.onlinewebfonts.com/icon -->
<!DOCTYPE svg PUBLIC "-//W3C//DTD SVG 1.1//EN" "http://www.w3.org/Graphics/SVG/1.1/DTD/svg11.dtd">
<svg version="1.1" xmlns="http://www.w3.org/2000/svg" xmlns:xlink="http://www.w3.org/1999/xlink" x="0px" y="0px" viewBox="0 0 256 256" enable-background="new 0 0 256 256" xml:space="preserve">
<metadata> Svg Vector Icons : http://www.onlinewebfonts.com/icon </metadata>
<g><g><g><path fill="#000000" d="M124,10.9c-1.7,1.2-2.2,2.1-7.6,16.1c-2.6,6.6-17.1,43.9-32.4,82.8c-15.3,38.9-28.2,72.2-28.9,73.9c-1.4,3.8-0.8,6.2,1.9,8.6l1.8,1.5h30.5h30.5v22.6c0,24.8,0.1,25.2,3.5,28.1c3.4,2.8,9.7,1.7,11.9-2.1c0.6-1,0.8-7,1.1-24.8l0.3-23.5l30.6-0.3l30.6-0.3l1.5-1.4c2.2-2.1,2.9-4.7,1.9-7.5c-0.8-2.4-60.3-154.3-64.8-165.7c-1.7-4.2-3.2-7-4.1-7.7C130.4,9.7,125.9,9.6,124,10.9z"/></g></g></g>
</svg>